<svg width="17" height="16" viewBox="0 0 17 16" fill="none" xmlns="http://www.w3.org/2000/svg">
<g clip-path="url(#clip0_2008_1053)">
<path d="M14.3085 2.66666H12.2418C12.0871 1.91427 11.6777 1.23822 11.0827 0.752471C10.4876 0.266719 9.74332 0.000962054 8.97518 -7.62939e-06L7.64185 -7.62939e-06C6.87371 0.000962054 6.12939 0.266719 5.53435 0.752471C4.9393 1.23822 4.52991 1.91427 4.37518 2.66666H2.30851C2.1317 2.66666 1.96213 2.7369 1.83711 2.86192C1.71208 2.98695 1.64185 3.15651 1.64185 3.33333C1.64185 3.51014 1.71208 3.67971 1.83711 3.80473C1.96213 3.92975 2.1317 3.99999 2.30851 3.99999H2.97518V12.6667C2.97624 13.5504 3.32777 14.3976 3.95266 15.0225C4.57755 15.6474 5.42478 15.9989 6.30851 16H10.3085C11.1922 15.9989 12.0395 15.6474 12.6644 15.0225C13.2893 14.3976 13.6408 13.5504 13.6418 12.6667V3.99999H14.3085C14.4853 3.99999 14.6549 3.92975 14.7799 3.80473C14.9049 3.67971 14.9752 3.51014 14.9752 3.33333C14.9752 3.15651 14.9049 2.98695 14.7799 2.86192C14.6549 2.7369 14.4853 2.66666 14.3085 2.66666ZM7.64185 1.33333H8.97518C9.3887 1.33383 9.79193 1.46224 10.1296 1.70095C10.4672 1.93967 10.7228 2.27699 10.8612 2.66666H5.75585C5.89423 2.27699 6.14978 1.93967 6.48744 1.70095C6.82509 1.46224 7.22833 1.33383 7.64185 1.33333ZM12.3085 12.6667C12.3085 13.1971 12.0978 13.7058 11.7227 14.0809C11.3477 14.4559 10.8389 14.6667 10.3085 14.6667H6.30851C5.77808 14.6667 5.26937 14.4559 4.8943 14.0809C4.51923 13.7058 4.30851 13.1971 4.30851 12.6667V3.99999H12.3085V12.6667Z" fill="#E01507"/>
<path d="M6.97526 11.9996C7.15207 11.9996 7.32164 11.9293 7.44666 11.8043C7.57169 11.6793 7.64192 11.5097 7.64192 11.3329V7.33292C7.64192 7.15611 7.57169 6.98654 7.44666 6.86151C7.32164 6.73649 7.15207 6.66625 6.97526 6.66625C6.79845 6.66625 6.62888 6.73649 6.50386 6.86151C6.37883 6.98654 6.30859 7.15611 6.30859 7.33292V11.3329C6.30859 11.5097 6.37883 11.6793 6.50386 11.8043C6.62888 11.9293 6.79845 11.9996 6.97526 11.9996Z" fill="#E01507"/>
<path d="M9.64189 11.9996C9.8187 11.9996 9.98827 11.9293 10.1133 11.8043C10.2383 11.6793 10.3086 11.5097 10.3086 11.3329V7.33292C10.3086 7.15611 10.2383 6.98654 10.1133 6.86151C9.98827 6.73649 9.8187 6.66625 9.64189 6.66625C9.46508 6.66625 9.29551 6.73649 9.17048 6.86151C9.04546 6.98654 8.97522 7.15611 8.97522 7.33292V11.3329C8.97522 11.5097 9.04546 11.6793 9.17048 11.8043C9.29551 11.9293 9.46508 11.9996 9.64189 11.9996Z" fill="#E01507"/>
</g>
<defs>
<clipPath id="clip0_2008_1053">
<rect width="16" height="16" fill="white" transform="translate(0.308594)"/>
</clipPath>
</defs>
</svg>
