<svg width="17" height="16" viewBox="0 0 17 16" fill="none" xmlns="http://www.w3.org/2000/svg">
<g clip-path="url(#clip0_2008_1049)">
<path d="M12.7461 0.620152L4.6181 8.74815C4.30766 9.05692 4.06156 9.42419 3.89402 9.82872C3.72649 10.2332 3.64087 10.667 3.6421 11.1048V12.0002C3.6421 12.177 3.71234 12.3465 3.83737 12.4716C3.96239 12.5966 4.13196 12.6668 4.30877 12.6668H5.2041C5.64194 12.6681 6.07568 12.5824 6.48021 12.4149C6.88473 12.2474 7.25201 12.0013 7.56077 11.6908L15.6888 3.56282C16.0784 3.17227 16.2972 2.64314 16.2972 2.09149C16.2972 1.53984 16.0784 1.01071 15.6888 0.620152C15.2926 0.241415 14.7656 0.0300522 14.2174 0.0300522C13.6693 0.0300522 13.1423 0.241415 12.7461 0.620152ZM14.7461 2.62015L6.6181 10.7482C6.24219 11.1218 5.73411 11.3321 5.2041 11.3335H4.97544V11.1048C4.97683 10.5748 5.18715 10.0667 5.56077 9.69082L13.6888 1.56282C13.8312 1.42679 14.0205 1.35088 14.2174 1.35088C14.4144 1.35088 14.6037 1.42679 14.7461 1.56282C14.8861 1.70316 14.9647 1.89328 14.9647 2.09149C14.9647 2.28969 14.8861 2.47981 14.7461 2.62015Z" fill="#9EB945"/>
<path d="M15.6419 5.986C15.4651 5.986 15.2955 6.05624 15.1705 6.18126C15.0455 6.30629 14.9753 6.47586 14.9753 6.65267V10H12.3086C11.7782 10 11.2695 10.2107 10.8944 10.5858C10.5193 10.9609 10.3086 11.4696 10.3086 12V14.6667H3.64193C3.11149 14.6667 2.60279 14.456 2.22771 14.0809C1.85264 13.7058 1.64193 13.1971 1.64193 12.6667V3.33333C1.64193 2.8029 1.85264 2.29419 2.22771 1.91912C2.60279 1.54405 3.11149 1.33333 3.64193 1.33333H9.66993C9.84674 1.33333 10.0163 1.2631 10.1413 1.13807C10.2664 1.01305 10.3366 0.843478 10.3366 0.666667C10.3366 0.489856 10.2664 0.320286 10.1413 0.195262C10.0163 0.0702379 9.84674 0 9.66993 0L3.64193 0C2.7582 0.00105857 1.91097 0.352588 1.28607 0.97748C0.661182 1.60237 0.309652 2.4496 0.308594 3.33333L0.308594 12.6667C0.309652 13.5504 0.661182 14.3976 1.28607 15.0225C1.91097 15.6474 2.7582 15.9989 3.64193 16H11.2039C11.6419 16.0013 12.0757 15.9156 12.4803 15.7481C12.885 15.5806 13.2524 15.3345 13.5613 15.024L15.3319 13.252C15.6424 12.9432 15.8886 12.576 16.0563 12.1715C16.2239 11.767 16.3097 11.3332 16.3086 10.8953V6.65267C16.3086 6.47586 16.2384 6.30629 16.1133 6.18126C15.9883 6.05624 15.8187 5.986 15.6419 5.986ZM12.6186 14.0813C12.3506 14.3487 12.0117 14.5337 11.6419 14.6147V12C11.6419 11.8232 11.7122 11.6536 11.8372 11.5286C11.9622 11.4036 12.1318 11.3333 12.3086 11.3333H14.9253C14.8428 11.7023 14.6579 12.0406 14.3919 12.3093L12.6186 14.0813Z" fill="#9EB945"/>
</g>
<defs>
<clipPath id="clip0_2008_1049">
<rect width="16" height="16" fill="white" transform="translate(0.308594)"/>
</clipPath>
</defs>
</svg>
