<svg width="17" height="16" viewBox="0 0 17 16" fill="none" xmlns="http://www.w3.org/2000/svg">
<path d="M15.6419 5.986C15.4651 5.986 15.2955 6.05624 15.1705 6.18126C15.0455 6.30629 14.9753 6.47586 14.9753 6.65267V10H12.3086C11.7782 10 11.2695 10.2107 10.8944 10.5858C10.5193 10.9609 10.3086 11.4696 10.3086 12V14.6667H3.64193C3.11149 14.6667 2.60279 14.456 2.22771 14.0809C1.85264 13.7058 1.64193 13.1971 1.64193 12.6667V3.33333C1.64193 2.8029 1.85264 2.29419 2.22771 1.91912C2.60279 1.54405 3.11149 1.33333 3.64193 1.33333H9.66993C9.84674 1.33333 10.0163 1.2631 10.1413 1.13807C10.2664 1.01305 10.3366 0.843478 10.3366 0.666667C10.3366 0.489856 10.2664 0.320286 10.1413 0.195262C10.0163 0.0702379 9.84674 0 9.66993 0L3.64193 0C2.7582 0.00105857 1.91097 0.352588 1.28607 0.97748C0.661182 1.60237 0.309652 2.4496 0.308594 3.33333L0.308594 12.6667C0.309652 13.5504 0.661182 14.3976 1.28607 15.0225C1.91097 15.6474 2.7582 15.9989 3.64193 16H11.2039C11.6419 16.0013 12.0757 15.9156 12.4803 15.7481C12.885 15.5806 13.2524 15.3345 13.5613 15.024L15.3319 13.252C15.6424 12.9432 15.8886 12.576 16.0563 12.1715C16.2239 11.767 16.3097 11.3332 16.3086 10.8953V6.65267C16.3086 6.47586 16.2384 6.30629 16.1133 6.18126C15.9883 6.05624 15.8187 5.986 15.6419 5.986ZM12.6186 14.0813C12.3506 14.3487 12.0117 14.5337 11.6419 14.6147V12C11.6419 11.8232 11.7122 11.6536 11.8372 11.5286C11.9622 11.4036 12.1318 11.3333 12.3086 11.3333H14.9253C14.8428 11.7023 14.6579 12.0406 14.3919 12.3093L12.6186 14.0813Z" fill="#9EB945"/>
</svg>
